<svg id="figure" xmlns="http://www.w3.org/2000/svg" width="1145" height="962"><defs><style>.cls-3,.cls-7{stroke:#000;stroke-width:1px;fill-rule:evenodd}.cls-7{stroke:#0fd297;stroke-width:2px}.cls-3{fill:#0fd297;opacity:.1}.cls-7{fill:none}</style></defs><path id="Фигура_4" data-name="Фигура 4" d="M827 486l80-217-192-113-79 46 110 63-3 172z" opacity=".2" fill-rule="evenodd" stroke="#000" stroke-width="1"/><g id="hypercube"><g id="hypercube_Thin_mint" data-name="hypercube Thin mint"><path id="hexagon" d="M594.088 86.655L365.14 219.162v263.447l228.948 131.724 228.948-131.724V219.162z" opacity=".7" stroke="#0fd297" stroke-width="2" fill="#12161b" fill-rule="evenodd"/><g id="hexagon_fill" data-name="hexagon fill"><g id="front"><path id="hex_p_right" data-name="hex p right" class="cls-3" d="M823.036 219.107L594.088 349.61v263.35l228.948-131.284V219.107z"/><path id="hex_p_left" data-name="hex p left" class="cls-3" d="M365.14 219.018l228.948 130.429v263.2L365.14 481.439V219.018z"/></g><g id="back" opacity=".5"><path id="hex_p_left_back" data-name="hex p left back" class="cls-3" d="M593.151 86.344l1.3 263.465-228.374 131.778-.625-263.856z"/><path id="hex_p_right_back" data-name="hex p right back" class="cls-3" d="M593.824 86.651l-1.3 263.418L820.85 481.825l.624-263.81z"/></g></g><g id="element" fill-rule="evenodd"><path id="hexagon_fill-2" data-name="hexagon fill" d="M594.088 178.529l-149.166 85.989v170.96l149.166 85.48 149.167-85.48v-170.96z" fill="none"/><path id="hexagon-2" data-name="hexagon" d="M594.088 178.529l-149.166 86.185v171.35l149.166 85.675 149.167-85.675v-171.35z" opacity=".5" stroke="#0fd297" stroke-width="2" fill="#12161b"/></g><g id="lines"><path id="line_5" data-name="line 5" class="cls-7" d="M821.86 481.512l-79.191-44.7"/><path id="line_4" data-name="line 4" class="cls-7" d="M365.14 482.609l79.191-45.476"/><path id="line_3" data-name="line 3" class="cls-7" d="M594.088 86.655v92.52"/><path id="line_2" data-name="line 2" class="cls-7" d="M594.088 350.1v264.233"/><path id="line_1" data-name="line 1" class="cls-7" d="M365.14 219.162L594.088 350.1l228.948-130.94"/></g></g></g><g id="shadow"><path id="Фигура_2" data-name="Фигура 2" d="M1145 406.544L713.279 157 0 567.9l429.844 249.548z" opacity=".03" fill="#0fd297" fill-rule="evenodd" stroke="#000" stroke-width="1"/><path id="Фигура_3" data-name="Фигура 3" class="cls-3" d="M429.844 962V817.448L1.877 569.78v144.551z"/></g></svg>