<svg xmlns="http://www.w3.org/2000/svg" id="icon" viewBox="0 0 751 251"><defs><style>.cls-3{fill-rule:evenodd;fill:none;stroke:#0fd297;stroke-width:6px}</style></defs><path d="M251 139.629v26.2h3.5v-12.1h12.28v-2.907H254.5v-8.168h13.919v-3.018H251zm25.941 0v26.2h3.5v-26.2h-3.5zm13.807 26.2h3.352v-21.01l13.92 21.01h3.945v-26.2h-3.387V160.9l-13.998-21.271h-3.833v26.2zm38.668-26.2l-10.421 26.2h3.722l3.015-8.021h11.128l2.94 8.021h3.908l-10.347-26.2h-3.945zm-2.679 15.417l4.577-12.1 4.5 12.1h-9.081zm23.93 10.781h3.35v-21.01l13.919 21.01h3.945v-26.2h-3.387V160.9L354.5 139.629h-3.834v26.2zm50.429-9.9a8.855 8.855 0 01-2.419 5.612 7.459 7.459 0 01-5.4 1.931 8.009 8.009 0 01-6.513-2.87q-2.383-2.87-2.382-7.874a12.585 12.585 0 012.251-7.616 7.734 7.734 0 016.681-3.091 8.23 8.23 0 014.95 1.453 6.633 6.633 0 012.605 4.029h3.5a8.176 8.176 0 00-3.572-6.218 12.582 12.582 0 00-7.407-2.244 11.442 11.442 0 00-9.211 3.918 14.615 14.615 0 00-3.331 9.806q0 6.293 3.312 9.99a11.545 11.545 0 0020.433-6.826h-3.5zm12.393-16.3v26.2h18.535v-3.017h-15.037v-9.051h13.882v-2.907h-13.882v-8.205h14.849v-3.018h-18.348zm41.349 0v26.2h2.121v-3.679a6.262 6.262 0 002.6 3.146 8.786 8.786 0 0010.57-1.619 12.617 12.617 0 00.019-14.626 7.784 7.784 0 00-6.234-2.723 7.889 7.889 0 00-4.15 1.086 6.468 6.468 0 00-2.661 3.072v-10.855h-2.27zm13.491 10.836a10.779 10.779 0 010 11.83 5.727 5.727 0 01-4.708 2.208 5.855 5.855 0 01-4.8-2.208 10.731 10.731 0 01-.019-11.83 6.278 6.278 0 019.526.002zm24.805-3.55l-4.727 12.768q-.186.479-1.153 3.605-.856-2.574-1.154-3.348l-5.173-13.025h-2.568l7.7 18.765c-.025.074-.05.142-.075.2s-.05.129-.074.2a.7.7 0 01-.075.165.678.678 0 00-.074.2 16.744 16.744 0 01-1.656 3.569 2.452 2.452 0 01-2.14 1.03 7.389 7.389 0 01-1.675-.257v2.023a12.62 12.62 0 002.047.184 3.777 3.777 0 003.2-1.361 22.188 22.188 0 002.463-5.105l7.518-19.611h-2.382zm21.549-7.286v2.135h9.3v24.063h2.531v-24.061h9.3v-2.135h-21.132zm28.062 26.2h11.723a10.334 10.334 0 006.42-1.931 6.573 6.573 0 002.55-5.575 5.8 5.8 0 00-1.582-4.342 7.745 7.745 0 00-4.038-2.023 5.776 5.776 0 003.256-2.061 5.71 5.71 0 001.322-3.716 5.57 5.57 0 00-2.364-4.931 10.271 10.271 0 00-5.936-1.619h-11.352v26.2zm10.2-24.063a17.357 17.357 0 012.55.165 8.477 8.477 0 012.177.644 3.506 3.506 0 011.656 1.472 4.847 4.847 0 01.577 2.465 3.889 3.889 0 01-1.824 3.606 8.475 8.475 0 01-4.466 1.1H545.2v-9.456h7.741zm.038 11.479a19.081 19.081 0 012.791.184 11.487 11.487 0 012.493.681 3.954 3.954 0 011.954 1.582 4.888 4.888 0 01.689 2.668 5.332 5.332 0 01-.67 2.778 4.036 4.036 0 01-1.88 1.656 9.5 9.5 0 01-2.419.717 18.85 18.85 0 01-2.81.184H545.2v-10.45h7.779zm38.854 2.539a10.245 10.245 0 01-2.717 6.163 8.116 8.116 0 01-6.1 2.337 8.779 8.779 0 01-7.053-3.146 14.472 14.472 0 01.033-16.778 9.583 9.583 0 0112.6-1.472 7.448 7.448 0 012.866 4.617h2.531a8.605 8.605 0 00-3.629-6.163 11.865 11.865 0 00-7.2-2.336 11.136 11.136 0 00-9.063 3.974 14.826 14.826 0 00-3.294 9.787q0 6.219 3.313 9.935a11.232 11.232 0 008.82 3.716 11.109 11.109 0 007.872-2.888 11.46 11.46 0 003.517-7.746h-2.494zm30.667 0a10.257 10.257 0 01-2.717 6.163 8.116 8.116 0 01-6.1 2.337 8.779 8.779 0 01-7.053-3.146 14.472 14.472 0 01.037-16.778 9.583 9.583 0 0112.6-1.472 7.448 7.448 0 012.866 4.617h2.531a8.605 8.605 0 00-3.629-6.163 11.865 11.865 0 00-7.2-2.336 11.136 11.136 0 00-9.063 3.974 14.826 14.826 0 00-3.294 9.787q0 6.219 3.313 9.935a11.232 11.232 0 008.82 3.716 11.109 11.109 0 007.872-2.888 11.46 11.46 0 003.517-7.746H622.5zM284.879 63.74v21.384h-27.072V63.74h-6.768V115h6.768V91.028h27.072V115h6.768V63.74h-6.768zm59.975 0l-15.192 24.408-15.336-24.408h-8.136l19.944 30.312V115h6.7V94.052l19.8-30.312h-7.776zM367.245 115h6.768V93.98h13.9q17.5 0 17.5-15.48 0-7.631-4.608-11.2t-12.464-3.56h-21.1V115zm18.864-45.432a30.908 30.908 0 014.824.324 13.432 13.432 0 013.888 1.26 6.244 6.244 0 012.844 2.88 10.913 10.913 0 01.972 4.9q0 5.257-3.06 7.308t-8.532 2.052h-13.032v-18.72h12.1zM474.884 115h6.768V92.828h13.464q6.912 0 9.252 2.16t2.7 8.712q0 .216.072 1.944t.144 2.628q.072.9.216 2.376a13.56 13.56 0 00.468 2.556 6.266 6.266 0 00.828 1.8h7.776a6.351 6.351 0 01-.792-.972 7.328 7.328 0 01-.648-1.224q-.288-.684-.5-1.224a6.939 6.939 0 01-.36-1.4q-.144-.864-.216-1.368t-.18-1.512q-.108-1.008-.108-1.4t-.072-1.512q-.072-1.116-.072-1.4-.144-2.952-.36-4.464a17.107 17.107 0 00-.936-3.456 6.117 6.117 0 00-2.3-3.024 12.048 12.048 0 00-4.176-1.656 11.54 11.54 0 006.372-4.572 13.332 13.332 0 002.412-7.884q0-14.183-17.208-14.184h-22.544V115zM496.2 69.5a16.867 16.867 0 018.532 1.836q3.132 1.836 3.132 7.02a9.972 9.972 0 01-.792 4.176 7.039 7.039 0 01-1.98 2.664 8.415 8.415 0 01-3.132 1.44 22.036 22.036 0 01-3.564.648q-1.62.145-4 .144h-12.744V69.5H496.2zm73.3 26.136q-.792 7.2-4.68 10.98t-10.44 3.78q-7.992 0-12.6-5.616t-4.608-15.408q0-8.856 4.356-14.9t12.924-6.048a15.782 15.782 0 019.576 2.844 12.987 12.987 0 015.04 7.884h6.768a16.033 16.033 0 00-6.912-12.168 24.139 24.139 0 00-14.328-4.392q-11.376 0-17.82 7.668t-6.444 19.188q0 12.312 6.408 19.548t17.352 7.236q9.576 0 15.444-5.436t6.732-15.156H569.5zm23.615-.648q0 10.8 4.86 15.948t15.8 5.148q11.3 0 15.984-5.292t4.68-16.524V63.74H627.6v32.328q0 7.345-3.132 10.872t-10.692 3.528q-7.344 0-10.584-3.456t-3.24-10.944V63.74h-6.84v31.248zM654.09 115h21.1q19.44 0 19.44-14.472a13.706 13.706 0 00-2.556-8.5 12.16 12.16 0 00-7.308-4.464 10.942 10.942 0 005.508-4.212 11.729 11.729 0 002.052-6.8q0-6.623-4.644-9.72a20.666 20.666 0 00-11.7-3.1H654.09V115zm19.44-45.5q2.231 0 3.636.108a19.916 19.916 0 013.168.54 6.935 6.935 0 012.772 1.26 6.632 6.632 0 011.728 2.376 8.946 8.946 0 01.72 3.78 8.154 8.154 0 01-.828 3.816 6.916 6.916 0 01-1.944 2.412 8.011 8.011 0 01-2.988 1.26 22.369 22.369 0 01-3.348.54q-1.476.108-3.564.108h-12.168V69.5h12.816zm-.43 21.528q2.376 0 3.528.036t3.24.252a9.279 9.279 0 013.2.792 17.628 17.628 0 012.376 1.512 5.112 5.112 0 011.8 2.52 11.632 11.632 0 01.54 3.744 11.15 11.15 0 01-.792 4.428 7.485 7.485 0 01-1.944 2.808 7.771 7.771 0 01-3.132 1.476 20.216 20.216 0 01-3.564.612q-1.584.108-4.1.108h-13.538V91.028H673.1z" fill-rule="evenodd" fill="#0fd297"/><path d="M422 63h39v7h-39zm0 23h39v7h-39zm0 22h39v7h-39zm290-45h39v7h-39zm0 23h39v7h-39zm0 22h39v7h-39z" fill="#0fd297"/><path d="M108.831 4.245L3.318 65.313v121.411l105.513 60.706 105.512-60.706V65.313z" class="cls-3"/><g opacity=".5"><path fill="#0fd297" fill-rule="evenodd" stroke="#000" d="M108.709 4.244l-.224 45.312L174 88l-.033 75.645 39.369 22.718.287-121.578z" opacity=".1"/></g><path fill="none" fill-rule="evenodd" d="M108.831 46.617L40.086 86.3v78.907l68.745 39.453 68.744-39.453V86.3z"/><path d="M108.831 46.617L40.086 86.359v79.014l68.745 39.506 68.744-39.506V86.359z" class="cls-3"/><path d="M213.8 186.218l-36.5-20.6M3.318 186.724l36.5-20.958M108.831 4.245v42.639m0 78.773V247.43M3.318 65.313l105.513 60.344 105.512-60.344" class="cls-3"/></svg>