<svg xmlns="http://www.w3.org/2000/svg" viewBox="0 0 588 676"><defs><style>.cls-1{fill:none;stroke:#0fd297;stroke-width:3px;fill-rule:evenodd}</style></defs><path d="M294 2L2 171v336l292 168 292-168V171z" class="cls-1"/><g opacity=".5"><path fill="#0fd297" fill-rule="evenodd" stroke="#000" d="M293.663 1.994l-.584 118.13L483 230l.59 218.513L583.212 506l.8-336.462z" opacity=".1"/></g><path fill="none" fill-rule="evenodd" d="M294 119.259L103.753 228.991v218.167L294 556.24l190.247-109.082V228.991z"/><path d="M294 119.259L103.753 229.242v218.665L294 557.239l190.247-109.332V229.242z" class="cls-1"/><path d="M584.5 505.6l-101-57.014M2 507l101-58M294 2v118m0 218v337M2 171l292 167 292-167" class="cls-1"/></svg>