<svg xmlns="http://www.w3.org/2000/svg" viewBox="0 0 1145 962"><defs><style>.cls-3{stroke-width:1px;fill-rule:evenodd;fill:#0fd297;opacity:.1}</style></defs><path fill-rule="evenodd" d="M827 486l80-217-192-113-79 46 110 63-3 172z" opacity=".2"/><path fill="#12161b" fill-rule="evenodd" stroke="#0fd297" stroke-width="2" d="M594.088 86.655L365.14 219.162v263.447l228.948 131.724 228.948-131.724V219.162z" opacity=".7"/><path d="M823.036 219.107L594.088 349.61v263.35l228.948-131.284V219.107zm-457.896-.089l228.948 130.429v263.2L365.14 481.439V219.018z" class="cls-3"/><g opacity=".5"><path d="M593.151 86.344l1.3 263.465-228.374 131.778-.625-263.856z" class="cls-3"/><path d="M593.824 86.651l-1.3 263.418L820.85 481.825l.624-263.81z" class="cls-3"/></g><g fill-rule="evenodd"><path fill="none" d="M594.088 178.529l-149.166 85.989v170.96l149.166 85.48 149.167-85.48v-170.96z"/><path fill="#12161b" stroke="#0fd297" stroke-width="2" d="M594.088 178.529l-149.166 86.185v171.35l149.166 85.675 149.167-85.675v-171.35z" opacity=".5"/></g><path d="M821.86 481.512l-79.191-44.7M365.14 482.609l79.191-45.476M594.088 86.655v92.52m0 170.925v264.233M365.14 219.162L594.088 350.1l228.948-130.94" fill="none" stroke="#0fd297" stroke-width="2" fill-rule="evenodd"/><path fill="#0fd297" fill-rule="evenodd" d="M1145 406.544L713.279 157 0 567.9l429.844 249.548z" opacity=".03"/><path d="M429.844 962V817.448L1.877 569.78v144.551z" class="cls-3"/></svg>