<svg xmlns="http://www.w3.org/2000/svg" viewBox="0 0 846 800"><g fill="none" fill-rule="evenodd" stroke="#0fd297" stroke-width="2" opacity=".2"><path d="M425 146L140 461 28 771l227-310v310l110-310v310l115-310v310l115-310v310l110-310v310L595 461 28 771l337-310 230 310-115-310 340 310-115-310-225 310-115-310-225 310 115-310 110 310 340-310-450 310 340-310-230 310-225-310 115 310 225-310-339 311-1-311 340 310-225-310 340 310-455-310 565 310-225-310L28 771l677-310-565 310 455-310 225 310-455-310 340 310-450-310 565 310-680-310 115 310V461z"/><path d="M365 461l60-315 55 315 340 310-225-310-170-315 280 315-110 310V461L425 146"/></g><path fill="#0fd297" fill-rule="evenodd" stroke="#0fd297" d="M139.59 433.747l-22.325 12.811v25.471l22.325 12.735 22.326-12.735v-25.471zm115 0l-22.325 12.811v25.471l22.325 12.735 22.326-12.735v-25.471zm110 0l-22.325 12.811v25.471l22.325 12.735 22.326-12.735v-25.471zm115 0l-22.325 12.811v25.471l22.325 12.735 22.326-12.735v-25.471zm115 0l-22.325 12.811v25.471l22.325 12.735 22.326-12.735v-25.471zm110 0l-22.325 12.811v25.471l22.325 12.735 22.326-12.735v-25.471zm115 312l-22.325 12.811v25.471l22.325 12.735 22.326-12.735v-25.471zm-115 0l-22.325 12.811v25.471l22.325 12.735 22.326-12.735v-25.471zm-110 0l-22.325 12.811v25.471l22.325 12.735 22.326-12.735v-25.471zm-115 0l-22.325 12.811v25.471l22.325 12.735 22.326-12.735v-25.471zm-115 0l-22.325 12.811v25.471l22.325 12.735 22.326-12.735v-25.471zm-110 0l-22.325 12.811v25.471l22.325 12.735 22.326-12.735v-25.471zm-115 0l-22.325 12.811v25.471l22.325 12.735 22.326-12.735v-25.471zm-111.999 0L5.265 758.558v25.471l22.325 12.735 22.325-12.735v-25.471z"/><g fill="none" stroke="#0fd297" stroke-width="2"><path d="M424.606 9.537l-59.5 34.436v68.465l59.5 34.233 59.5-34.233V43.973z"/><path d="M424.606 33.43L385.84 55.841V100.4l38.766 22.279 38.766-22.279V55.841z"/><path d="M483.8 112.153l-20.58-11.617m-98.114 11.902l20.58-11.818m38.92-91.083v24.044m0 44.419v68.669m-59.5-102.696L424.606 78l59.5-34.029"/></g><path fill="#0fd297" fill-rule="evenodd" d="M424.537 9.536L424 32l40 24-.225 44.831 19.763 11.4.162-68.56z" opacity=".5"/><path fill="none" d="M424.606 33.43L385.84 55.811v44.5l38.766 22.248 38.766-22.248v-44.5z"/></svg>