<svg xmlns="http://www.w3.org/2000/svg" viewBox="0 0 164 184"><path stroke="#0fd297" stroke-width="2" d="M149.351 87.795c-6.07-8.219-16.854-12.011-29.026-10.255a15 15 0 00-20.817-14.429A19.223 19.223 0 0092.483 51.1a19.788 19.788 0 00-15.192-3.915A20.052 20.052 0 0067.6 51.93a20.439 20.439 0 00-5.611 10.1 26.746 26.746 0 00-10.6-3.977l-.257 1.71A25.045 25.045 0 0162.1 64.2l1.156.828.2-1.407a18.565 18.565 0 015.358-10.457 18.32 18.32 0 018.717-4.264 18.067 18.067 0 0113.879 3.56 17.471 17.471 0 016.529 12.019l.12 1.278 1.14-.591a13.278 13.278 0 0119.323 13.3l-.132 1.145 1.136-.193c12.124-2.071 22.491 1.357 28.434 9.4 4.451 6.027 5.354 13.462 2.357 19.4-3.326 6.594-10.789 10.226-21.014 10.226h-.865v54.786h1.73v-53.057c14.082-.269 19.63-7.077 21.693-11.168 3.292-6.529 2.331-14.656-2.51-21.21zM96.92 128.207h6.526l-12.859 22.274-12.859-22.274h6.526v-9.756H72.459v-7.819h7.792L64.4 83.168l-15.86 27.464h7.792v7.819H23.256c-9.344 0-16.154-3.236-19.177-9.111a15.186 15.186 0 011.362-15.6c3.514-4.92 9.309-7.194 15.914-6.227l1.069.156-.082-1.078a25.125 25.125 0 0116.767-25.649l.576-.2V.922h-1.73v58.6a26.847 26.847 0 00-17.4 26.145c-6.829-.682-12.81 1.86-16.525 7.061a16.934 16.934 0 00-1.492 17.4c1.931 3.753 7.189 10.048 20.715 10.048h34.809V108.9h-6.525L64.4 86.628 77.255 108.9H70.73v11.28h11.793v6.3h-7.792l15.856 27.46 15.855-27.464h-7.793v-6.3h18.729v-1.729H96.92v9.756z" opacity=".6"/></svg>