<svg xmlns="http://www.w3.org/2000/svg" viewBox="0 0 553 568"><g fill="#122928" fill-rule="evenodd"><path d="M448.417 11.451S443.025-3.31 430.262 1.085c-1.8 1.08-413.047 238.8-418.422 241.865-9.433 5.7-10.374 19.869-10.374 19.869S.6 550.694.6 553.921c.111 12.908 10.374 10.365 10.374 10.365z" opacity=".2"/><path d="M448.417 14.032c0-14-12.1-9.492-12.1-9.492S23.266 243.086 17.892 246.151C8.459 251.844 7.518 266 7.518 266s-.865 287.572-.865 290.8c.112 12.895 10.374 10.355 10.374 10.355L271.53 424.51c-26.884-48.98-20.221-138.233-20.221-138.233l134.863-146.053 63.907-5.66s-1.662-118.757-1.662-120.532z" opacity=".4"/></g><g opacity=".2"><path d="M386.172 139.185S252.438 284.222 251.309 285.913c-9.721 179.391 84.722 207.143 84.722 207.143s-69-45.582-60.516-192.472c7.633-9.735 136.593-145 136.593-145zm136.593-10.195l25.935 14.691-135.728 11.235-25.935-15.556z"/><path fill="#0fd297" fill-rule="evenodd" d="M552.158 147.139c-1.129.564-134 11.234-134 11.234S282.431 303 282.431 303.562c-13.121 223.3 134 221.24 134 221.24s148.708-157.058 135.727-377.663z"/></g></svg>