<svg id="figure" xmlns="http://www.w3.org/2000/svg" width="1145" height="962" viewBox="0 0 1145 962">
  <defs>
    <style>
      .cls-1, .cls-3, .cls-8 {
        stroke: #000;
        stroke-width: 1px;
      }

      .cls-1, .cls-2, .cls-3, .cls-5, .cls-6, .cls-7, .cls-8 {
        fill-rule: evenodd;
      }

      .cls-1 {
        opacity: 0.2;
      }

      .cls-2, .cls-6 {
        fill: #12161b;
      }

      .cls-2, .cls-6, .cls-7 {
        stroke: #0fd297;
        stroke-width: 2px;
      }

      .cls-2 {
        opacity: 0.7;
      }

      .cls-3, .cls-8 {
        fill: #0fd297;
      }

      .cls-3 {
        opacity: 0.1;
      }

      .cls-4, .cls-6 {
        opacity: 0.5;
      }

      .cls-5, .cls-7 {
        fill: none;
      }

      .cls-8 {
        opacity: 0.03;
      }
    </style>
  </defs>
  <path id="Фигура_4" data-name="Фигура 4" class="cls-1" d="M827,486l80-217L715,156l-79,46,110,63-3,172Z"/>
  <g id="hypercube">
    <g id="hypercube_Thin_mint" data-name="hypercube Thin mint">
      <path id="hexagon" class="cls-2" d="M594.088,86.655L365.14,219.162V482.609L594.088,614.333,823.036,482.609V219.162Z"/>
      <g id="hexagon_fill" data-name="hexagon fill">
        <g id="front">
          <path id="hex_p_right" data-name="hex p right" class="cls-3" d="M823.036,219.107L594.088,349.61V612.96L823.036,481.676V219.107Z"/>
          <path id="hex_p_left" data-name="hex p left" class="cls-3" d="M365.14,219.018L594.088,349.447v263.2L365.14,481.439V219.018Z"/>
        </g>
        <g id="back" class="cls-4">
          <path id="hex_p_left_back" data-name="hex p left back" class="cls-3" d="M593.151,86.344l1.3,263.465L366.077,481.587l-0.625-263.856Z"/>
          <path id="hex_p_right_back" data-name="hex p right back" class="cls-3" d="M593.824,86.651l-1.3,263.418L820.85,481.825l0.624-263.81Z"/>
        </g>
      </g>
      <g id="element">
        <path id="hexagon_fill-2" data-name="hexagon fill" class="cls-5" d="M594.088,178.529L444.922,264.518v170.96l149.166,85.48,149.167-85.48V264.518Z"/>
        <path id="hexagon-2" data-name="hexagon" class="cls-6" d="M594.088,178.529L444.922,264.714v171.35l149.166,85.675,149.167-85.675V264.714Z"/>
      </g>
      <g id="lines">
        <path id="line_5" data-name="line 5" class="cls-7" d="M821.86,481.512l-79.191-44.7"/>
        <path id="line_4" data-name="line 4" class="cls-7" d="M365.14,482.609l79.191-45.476"/>
        <path id="line_3" data-name="line 3" class="cls-7" d="M594.088,86.655v92.52"/>
        <path id="line_2" data-name="line 2" class="cls-7" d="M594.088,350.1V614.333"/>
        <path id="line_1" data-name="line 1" class="cls-7" d="M365.14,219.162L594.088,350.1l228.948-130.94"/>
      </g>
    </g>
  </g>
  <g id="shadow">
    <path id="Фигура_2" data-name="Фигура 2" class="cls-8" d="M1145,406.544L713.279,157,0,567.9,429.844,817.448Z"/>
    <path id="Фигура_3" data-name="Фигура 3" class="cls-3" d="M429.844,962V817.448L1.877,569.78V714.331Z"/>
  </g>
</svg>
