<svg xmlns="http://www.w3.org/2000/svg" viewBox="0 0 846 800">
  <g fill="none" fill-rule="evenodd" stroke="#0fd297" stroke-width="2" opacity=".2">
    <path d="M425 146 140 461 28 771l227-310v310l110-310v310l115-310v310l115-310v310l110-310v310L595 461 28 771l337-310 230 310-115-310 340 310-115-310-225 310-115-310-225 310 115-310 110 310 340-310-450 310 340-310-230 310-225-310 115 310 225-310-339 311-1-311 340 310-225-310 340 310-455-310 565 310-225-310L28 771l677-310-565 310 455-310 225 310-455-310 340 310-450-310 565 310-680-310 115 310V461Z"/>
    <path d="m365 461 60-315 55 315 340 310-225-310-170-315 280 315-110 310V461L425 146"/>
  </g>
  
  <path fill="#0fd297" fill-rule="evenodd" stroke="#0fd297" d="m139.59 433.747-22.325 12.811v25.471l22.325 12.735 22.326-12.735v-25.471Zm115 0-22.325 12.811v25.471l22.325 12.735 22.326-12.735v-25.471Zm110 0-22.325 12.811v25.471l22.325 12.735 22.326-12.735v-25.471Zm115 0-22.325 12.811v25.471l22.325 12.735 22.326-12.735v-25.471Zm115 0-22.325 12.811v25.471l22.325 12.735 22.326-12.735v-25.471Zm110 0-22.325 12.811v25.471l22.325 12.735 22.326-12.735v-25.471Zm115 312-22.325 12.811v25.471l22.325 12.735 22.326-12.735v-25.471Zm-115 0-22.325 12.811v25.471l22.325 12.735 22.326-12.735v-25.471Zm-110 0-22.325 12.811v25.471l22.325 12.735 22.326-12.735v-25.471Zm-115 0-22.325 12.811v25.471l22.325 12.735 22.326-12.735v-25.471Zm-115 0-22.325 12.811v25.471l22.325 12.735 22.326-12.735v-25.471Zm-110 0-22.325 12.811v25.471l22.325 12.735 22.326-12.735v-25.471Zm-115 0-22.325 12.811v25.471l22.325 12.735 22.326-12.735v-25.471Zm-111.999 0L5.265 758.558v25.471l22.325 12.735 22.325-12.735v-25.471Z"/>
 
 <g fill="none" stroke="#0fd297" stroke-width="2" >
  <path d="m424.606 9.537-59.5 34.436v68.465l59.5 34.233 59.5-34.233V43.973Z"/>
  <path d="M424.606 33.43 385.84 55.841V100.4l38.766 22.279 38.766-22.279V55.841Z"/>
  <path d="m483.8 112.153-20.58-11.617m-98.114 11.902 20.58-11.818m38.92-91.083v24.044m0 44.419v68.669m-59.5-102.696L424.606 78l59.5-34.029"/>
 </g>

  <path fill="#0fd297" fill-rule="evenodd" d="M424.537 9.536 424 32l40 24-.225 44.831 19.763 11.4.162-68.56Z" opacity=".5"/>
  <path fill="none" d="M424.606 33.43 385.84 55.811v44.5l38.766 22.248 38.766-22.248v-44.5Z"/>
</svg>
