<svg xmlns="http://www.w3.org/2000/svg" viewBox="0 0 144 158">
  <g opacity=".6">
    <path fill="#122928" d="M.138 140.062H.19c-.374 3.127 1.306 6.166 5.135 8.381l9.232 5.649c7.684 4.446 21.105 3.888 29.978-1.245l91.966-53.2c4.98-2.88 7.467-6.59 7.334-10.076h.006v-18.7L.138 121.363v18.7Z"/>
    <path fill="#4eb68d" d="m14.622 133.022-9.228-5.646c-7.681-4.441-6.718-12.2 2.152-17.328l91.93-53.162c8.869-5.129 22.285-5.686 29.966-1.244l9.228 5.645c7.681 4.442 6.718 12.2-2.151 17.329l-91.931 53.161c-8.869 5.129-22.288 5.686-29.966 1.245Z"/>
    <path fill="#122928" d="M53.006 105.15a.5.5 0 0 0 .5-.5v-1.991a.5.5 0 1 0-1 0v1.991a.5.5 0 0 0 .5.5Zm0-4.978a.5.5 0 0 0 .5-.5v-1.99a.5.5 0 1 0-1 0v1.992a.5.5 0 0 0 .5.498Zm0-4.98a.5.5 0 0 0 .5-.5V92.7a.5.5 0 1 0-1 0v2a.5.5 0 0 0 .5.493Zm0-4.979a.5.5 0 0 0 .5-.5v-1.989a.5.5 0 1 0-1 0v1.992a.5.5 0 0 0 .5.498Zm0-4.979a.5.5 0 0 0 .5-.5v-1.988a.5.5 0 1 0-1 0v1.992a.5.5 0 0 0 .5.497Zm0-4.979a.5.5 0 0 0 .5-.5v-1.989a.5.5 0 0 0-1 0v1.992a.5.5 0 0 0 .5.498Zm0-4.979a.5.5 0 0 0 .5-.5V73.42a.5.5 0 1 0-1 0v1.359a.5.5 0 0 0 .5.498Zm-32.78 43.36a.5.5 0 0 0 .5-.5v-1.991a.5.5 0 1 0-1 0v1.991a.5.5 0 0 0 .5.501Zm0-4.979a.5.5 0 0 0 .5-.5v-1.991a.5.5 0 1 0-1 0v1.991a.5.5 0 0 0 .5.501Zm16.341.636a.5.5 0 0 0 .5-.5v-1.992a.5.5 0 1 0-1 0v1.999a.5.5 0 0 0 .5.494Zm0-4.979a.5.5 0 0 0 .5-.5v-1.991a.5.5 0 1 0-1 0v1.991a.5.5 0 0 0 .5.501Zm0-4.979a.5.5 0 0 0 .5-.5v-1.992a.5.5 0 1 0-1 0v1.992a.5.5 0 0 0 .5.501Zm0-4.978a.5.5 0 0 0 .5-.5v-1.989a.5.5 0 0 0-1 0v1.992a.5.5 0 0 0 .5.498Zm0-4.979a.5.5 0 0 0 .5-.5v-1.989a.5.5 0 1 0-1 0v1.992a.5.5 0 0 0 .5.498Zm0-4.979a.5.5 0 0 0 .5-.5V86.91a.5.5 0 0 0-1 0v1.99a.5.5 0 0 0 .5.5Zm32.78 6.453a.5.5 0 0 0 .5-.5v-1.988a.5.5 0 1 0-1 0v1.992a.5.5 0 0 0 .5.497Zm0-4.979a.5.5 0 0 0 .5-.5v-1.988a.5.5 0 1 0-1 0v1.991a.5.5 0 0 0 .5.498Zm0-4.979a.5.5 0 0 0 .5-.5v-1.988a.5.5 0 1 0-1 0V85.4a.5.5 0 0 0 .5.495Zm0-4.979a.5.5 0 0 0 .5-.5v-1.988a.5.5 0 1 0-1 0v1.992a.5.5 0 0 0 .5.497Zm0-4.979a.5.5 0 0 0 .5-.5v-1.988a.5.5 0 1 0-1 0v1.992a.5.5 0 0 0 .5.497Zm0-4.979a.5.5 0 0 0 .5-.5v-1.988a.5.5 0 0 0-1 0v1.991a.5.5 0 0 0 .5.499Zm0-4.979a.5.5 0 0 0 .5-.5V63.49a.5.5 0 1 0-1 0v1.992a.5.5 0 0 0 .5.498Zm0-4.979a.5.5 0 0 0 .5-.5v-1.988a.5.5 0 0 0-1 0V60.5a.5.5 0 0 0 .5.5Zm0-4.978a.5.5 0 0 0 .5-.5v-1.989a.5.5 0 1 0-1 0v1.992a.5.5 0 0 0 .5.498Zm0-4.979a.5.5 0 0 0 .5-.5v-1.988a.5.5 0 1 0-1 0v1.992a.5.5 0 0 0 .5.497Zm0-4.979a.5.5 0 0 0 .5-.5v-1.988a.5.5 0 1 0-1 0v1.992a.5.5 0 0 0 .5.497Zm16.341 40.314a.5.5 0 0 0 .5-.5v-1.99a.5.5 0 1 0-1 0v1.992a.5.5 0 0 0 .5.498Zm0-4.979a.5.5 0 0 0 .5-.5v-1.989a.5.5 0 1 0-1 0V80.9a.5.5 0 0 0 .5.5Zm0-4.979a.5.5 0 0 0 .5-.5v-1.99a.5.5 0 1 0-1 0v1.992a.5.5 0 0 0 .5.498Zm0-4.979a.5.5 0 0 0 .5-.5v-1.989a.5.5 0 1 0-1 0v1.992a.5.5 0 0 0 .5.497Zm0-4.978a.5.5 0 0 0 .5-.5v-1.991a.5.5 0 1 0-1 0v1.992a.5.5 0 0 0 .5.498Zm0-4.979a.5.5 0 0 0 .5-.5v-1.99a.5.5 0 1 0-1 0v1.992a.5.5 0 0 0 .5.498Zm0-4.979a.5.5 0 0 0 .5-.5v-1.99a.5.5 0 0 0-1 0v1.992a.5.5 0 0 0 .5.494Zm0-4.979a.5.5 0 0 0 .5-.5v-1.99a.5.5 0 1 0-1 0v1.992a.5.5 0 0 0 .5.498Zm0-4.979a.5.5 0 0 0 .5-.5v-1.99a.5.5 0 0 0-1 0v1.992a.5.5 0 0 0 .5.497Zm0-4.978a.5.5 0 0 0 .5-.5v-1.991a.5.5 0 1 0-1 0v1.992a.5.5 0 0 0 .5.498Zm0-4.979a.5.5 0 0 0 .5-.5V34.1a.5.5 0 1 0-1 0v1.99a.5.5 0 0 0 .5.498Zm0-4.979a.5.5 0 0 0 .5-.5v-1.991a.5.5 0 1 0-1 0v1.992a.5.5 0 0 0 .5.498Zm0-4.979a.5.5 0 0 0 .5-.5v-1.99a.5.5 0 1 0-1 0v1.992a.5.5 0 0 0 .5.497Zm0-4.979a.5.5 0 0 0 .5-.5v-1.91a.5.5 0 1 0-1 0v1.91a.5.5 0 0 0 .5.499Zm16.34 54.842a.5.5 0 0 0 .5-.5V74a.5.5 0 1 0-.995 0v1.992a.5.5 0 0 0 .495.501Zm0-4.979a.5.5 0 0 0 .5-.5v-1.991a.5.5 0 0 0-.995 0v1.992a.5.5 0 0 0 .495.498Zm0-4.979a.5.5 0 0 0 .5-.5v-1.99a.5.5 0 1 0-.995 0v1.992a.5.5 0 0 0 .495.497Zm0-4.979a.5.5 0 0 0 .5-.5v-1.991a.5.5 0 0 0-.995 0v1.992a.5.5 0 0 0 .495.498Zm0-4.978a.5.5 0 0 0 .5-.5v-1.991a.5.5 0 1 0-.995 0v1.992a.5.5 0 0 0 .495.497Zm0-4.979a.5.5 0 0 0 .5-.5v-1.991a.5.5 0 1 0-.995 0V51.1a.5.5 0 0 0 .495.5Zm0-4.979a.5.5 0 0 0 .5-.5V44.13a.5.5 0 1 0-.995 0v1.991a.5.5 0 0 0 .495.498Zm0-4.979a.5.5 0 0 0 .5-.5v-1.991a.5.5 0 1 0-.995 0v1.992a.5.5 0 0 0 .495.497Zm0-4.978a.5.5 0 0 0 .5-.5v-1.723a.5.5 0 1 0-.995 0v1.722a.5.5 0 0 0 .495.499ZM118.369 67.2a.5.5 0 0 0 .5-.5v-1.988a.5.5 0 1 0-1 0V66.7a.5.5 0 0 0 .5.5Zm0-4.979a.5.5 0 0 0 .5-.5v-1.988a.5.5 0 1 0-1 0v1.992a.5.5 0 0 0 .5.497Zm0-4.979a.5.5 0 0 0 .5-.5v-1.988a.5.5 0 1 0-1 0v1.992a.5.5 0 0 0 .5.497Zm0-4.979a.5.5 0 0 0 .5-.5v-1.988a.5.5 0 1 0-1 0v1.992a.5.5 0 0 0 .5.497Zm0-4.979a.5.5 0 0 0 .5-.5V44.8a.5.5 0 0 0-1 0v1.992a.5.5 0 0 0 .5.493Zm0-4.979a.5.5 0 0 0 .5-.5v-1.988a.5.5 0 1 0-1 0v1.992a.5.5 0 0 0 .5.498Zm0-4.979a.5.5 0 0 0 .5-.5v-1.988a.5.5 0 0 0-1 0v1.992a.5.5 0 0 0 .5.498Z" class="cls-2"/>
    <path fill="#0fd297" fill-rule="evenodd" d="M121.283 25.667a5.372 5.372 0 0 1-2.464 4.262 2.567 2.567 0 0 1-1.283.381 1.9 1.9 0 0 1-1.824-2.164 4.076 4.076 0 0 1 .075-.72l-10.8-.5a5.212 5.212 0 0 1-1.971 2.272 2.562 2.562 0 0 1-1.283.381 1.9 1.9 0 0 1-1.824-2.163 4.932 4.932 0 0 1 .644-2.289l-13.6-12.141a4.437 4.437 0 0 1-1.077.91 2.563 2.563 0 0 1-1.282.381 1.775 1.775 0 0 1-.661-.126l-11.9 16.1a2.616 2.616 0 0 1 .235 1.129 5.372 5.372 0 0 1-2.468 4.264 2.555 2.555 0 0 1-1.281.381L55.3 62.848a2.238 2.238 0 0 1 .625 1.688 5.372 5.372 0 0 1-2.46 4.264 2.565 2.565 0 0 1-1.283.382 1.725 1.725 0 0 1-1.56-.976l-10.755 7.065-.021-.032a5.384 5.384 0 0 1-2.453 4.12 2.565 2.565 0 0 1-1.282.382 1.839 1.839 0 0 1-.372-.041l-12.961 20.841a2.433 2.433 0 0 1 .385 1.4A5.37 5.37 0 0 1 20.7 106.2a2.558 2.558 0 0 1-1.282.382 1.9 1.9 0 0 1-1.824-2.164 5.373 5.373 0 0 1 2.464-4.262 2.57 2.57 0 0 1 1.283-.381 1.8 1.8 0 0 1 .373.042L34.673 78.98a2.439 2.439 0 0 1-.385-1.4 5.372 5.372 0 0 1 2.464-4.262 2.565 2.565 0 0 1 1.283-.382 1.724 1.724 0 0 1 1.56.976l10.779-7.085a5.392 5.392 0 0 1 2.448-4.071 2.561 2.561 0 0 1 1.281-.381l13.22-26.826a2.236 2.236 0 0 1-.626-1.687 5.371 5.371 0 0 1 2.464-4.262 2.564 2.564 0 0 1 1.282-.382 1.789 1.789 0 0 1 .661.126L83 13.246a2.62 2.62 0 0 1-.235-1.129 5.371 5.371 0 0 1 2.464-4.262 2.565 2.565 0 0 1 1.283-.382 1.9 1.9 0 0 1 1.824 2.164 4.932 4.932 0 0 1-.644 2.289l13.6 12.141a4.454 4.454 0 0 1 1.077-.91 2.568 2.568 0 0 1 1.283-.381 1.9 1.9 0 0 1 1.824 2.163 4.063 4.063 0 0 1-.075.72l10.8.5a5.209 5.209 0 0 1 1.971-2.272 2.569 2.569 0 0 1 1.283-.382 1.9 1.9 0 0 1 1.828 2.162Zm-99.4 76.275a.724.724 0 0 0-.539-.875 1.35 1.35 0 0 0-.64.209 4.092 4.092 0 0 0-1.822 3.146.724.724 0 0 0 .539.875 1.334 1.334 0 0 0 .64-.208 4.093 4.093 0 0 0 1.817-3.147ZM38.573 75.1a.724.724 0 0 0-.539-.876 1.347 1.347 0 0 0-.64.209 4.093 4.093 0 0 0-1.822 3.146.724.724 0 0 0 .539.875 1.336 1.336 0 0 0 .64-.208 4.093 4.093 0 0 0 1.822-3.146Zm16.071-10.565a.724.724 0 0 0-.539-.875 1.345 1.345 0 0 0-.64.208 4.093 4.093 0 0 0-1.822 3.146.724.724 0 0 0 .539.876 1.345 1.345 0 0 0 .64-.209 4.093 4.093 0 0 0 1.822-3.146Zm16.338-33.153a.724.724 0 0 0-.539-.875 1.346 1.346 0 0 0-.64.209 4.093 4.093 0 0 0-1.822 3.146.724.724 0 0 0 .539.875 1.346 1.346 0 0 0 .641-.208 4.094 4.094 0 0 0 1.821-3.147ZM87.053 9.637a.724.724 0 0 0-.539-.875 1.348 1.348 0 0 0-.641.209 4.094 4.094 0 0 0-1.822 3.146.724.724 0 0 0 .539.875 1.344 1.344 0 0 0 .64-.208 4.093 4.093 0 0 0 1.823-3.147Zm17.142 15.3a.723.723 0 0 0-.539-.875 1.336 1.336 0 0 0-.64.209 4.091 4.091 0 0 0-1.822 3.146.724.724 0 0 0 .539.875 1.344 1.344 0 0 0 .64-.209 4.091 4.091 0 0 0 1.827-3.144Zm15.805.73a.725.725 0 0 0-.539-.876 1.344 1.344 0 0 0-.64.209A4.092 4.092 0 0 0 117 28.146a.724.724 0 0 0 .539.875 1.343 1.343 0 0 0 .64-.208A4.094 4.094 0 0 0 120 25.667ZM19.416 106.836a2.814 2.814 0 0 0 1.407-.415 5.648 5.648 0 0 0 2.588-4.479 2.772 2.772 0 0 0-.34-1.4l12.79-20.565a2.591 2.591 0 0 0 1.658-.4 5.66 5.66 0 0 0 2.566-4.15l10.456-6.871a2.206 2.206 0 0 0 3.048.459 5.648 5.648 0 0 0 2.588-4.478A2.549 2.549 0 0 0 55.6 62.8l13.08-26.533a2.87 2.87 0 0 0 1.248-.408 5.642 5.642 0 0 0 2.588-4.478 2.942 2.942 0 0 0-.2-1.095L84.023 14.45A2.527 2.527 0 0 0 86 14.115a4.458 4.458 0 0 0 .97-.777l13.275 11.849a5.11 5.11 0 0 0-.582 2.233 2.132 2.132 0 0 0 2.072 2.413 2.8 2.8 0 0 0 1.407-.415 5.384 5.384 0 0 0 2-2.232l10.36.478a3.707 3.707 0 0 0-.034.484 2.131 2.131 0 0 0 2.072 2.413 2.806 2.806 0 0 0 1.407-.415 5.643 5.643 0 0 0 2.588-4.478 2.131 2.131 0 0 0-2.072-2.413 2.807 2.807 0 0 0-1.407.415 5.378 5.378 0 0 0-2 2.231l-10.36-.478a3.678 3.678 0 0 0 .035-.483 2.155 2.155 0 0 0-2.073-2.413 2.806 2.806 0 0 0-1.407.415 4.5 4.5 0 0 0-.97.777L88 11.87a5.107 5.107 0 0 0 .582-2.233 2.131 2.131 0 0 0-2.073-2.412 2.81 2.81 0 0 0-1.407.414 5.647 5.647 0 0 0-2.589 4.478 2.948 2.948 0 0 0 .2 1.1l-11.7 15.837a2.531 2.531 0 0 0-1.976.334 5.648 5.648 0 0 0-2.588 4.478 2.542 2.542 0 0 0 .575 1.733l-13.078 26.53a2.874 2.874 0 0 0-1.248.408 5.683 5.683 0 0 0-2.564 4.147l-10.458 6.874a2.206 2.206 0 0 0-3.049-.458 5.641 5.641 0 0 0-2.588 4.476 2.78 2.78 0 0 0 .34 1.4l-12.79 20.57a2.561 2.561 0 0 0-1.657.4 5.642 5.642 0 0 0-2.588 4.477 2.132 2.132 0 0 0 2.072 2.413Zm16.2-27.417-.092.149-13.042 20.978.09.134a2.2 2.2 0 0 1 .342 1.262 5.1 5.1 0 0 1-2.34 4.046 2.305 2.305 0 0 1-1.158.349 1.643 1.643 0 0 1-1.574-1.915 5.1 5.1 0 0 1 2.34-4.046 1.984 1.984 0 0 1 1.478-.312l.17.036.092-.149 13.047-20.976-.09-.135a2.2 2.2 0 0 1-.342-1.264 5.1 5.1 0 0 1 2.34-4.045 1.686 1.686 0 0 1 2.5.491l.123.249 11.118-7.307.007-.126a5.123 5.123 0 0 1 2.324-3.868 2.316 2.316 0 0 1 1.157-.347h.154l.069-.14 13.3-26.987-.133-.126a2.012 2.012 0 0 1-.549-1.507 5.1 5.1 0 0 1 2.339-4.046 1.96 1.96 0 0 1 1.727-.24l.178.071 12.1-16.371-.063-.136a2.374 2.374 0 0 1-.212-1.023 5.1 5.1 0 0 1 2.34-4.046 2.313 2.313 0 0 1 1.158-.348 1.643 1.643 0 0 1 1.575 1.913 4.7 4.7 0 0 1-.613 2.171l-.094.174 13.935 12.438.165-.186a4.161 4.161 0 0 1 1.016-.86 2.321 2.321 0 0 1 1.158-.348 1.644 1.644 0 0 1 1.575 1.915 3.718 3.718 0 0 1-.07.674l-.052.281 11.25.518.071-.151a4.939 4.939 0 0 1 1.87-2.163 2.321 2.321 0 0 1 1.158-.349 1.644 1.644 0 0 1 1.575 1.915 5.1 5.1 0 0 1-2.34 4.047 2.32 2.32 0 0 1-1.158.348 1.643 1.643 0 0 1-1.575-1.914 3.731 3.731 0 0 1 .071-.676l.052-.28-11.251-.518-.071.15a4.937 4.937 0 0 1-1.87 2.162 2.325 2.325 0 0 1-1.159.349 1.644 1.644 0 0 1-1.575-1.915 4.709 4.709 0 0 1 .613-2.171l.095-.174L86.93 12.636l-.165.187a4.156 4.156 0 0 1-1.015.86 1.961 1.961 0 0 1-1.728.24l-.177-.07-12.1 16.371.063.136a2.354 2.354 0 0 1 .211 1.021 5.1 5.1 0 0 1-2.34 4.047 2.312 2.312 0 0 1-1.156.347h-.155L55 62.9l.133.126a2.018 2.018 0 0 1 .548 1.507 5.1 5.1 0 0 1-2.339 4.046 1.676 1.676 0 0 1-2.5-.491l-.126-.248-.231.152-10.546 6.935-.29-.443-.05.746a5.17 5.17 0 0 1-2.328 3.913 2.319 2.319 0 0 1-1.158.35 1.57 1.57 0 0 1-.321-.036Zm-16.2 26.128a1.56 1.56 0 0 0 .765-.243 4.305 4.305 0 0 0 1.945-3.362.914.914 0 0 0-.786-1.123 1.554 1.554 0 0 0-.764.241 4.3 4.3 0 0 0-1.946 3.362.916.916 0 0 0 .786 1.125Zm1.924-4.23c.251 0 .289.392.289.625a3.866 3.866 0 0 1-1.7 2.93 1.121 1.121 0 0 1-.517.177c-.252 0-.29-.393-.29-.627a3.868 3.868 0 0 1 1.7-2.93 1.126 1.126 0 0 1 .518-.175ZM36.112 78.7a1.568 1.568 0 0 0 .764-.243 4.3 4.3 0 0 0 1.946-3.357.916.916 0 0 0-.788-1.124 1.565 1.565 0 0 0-.764.242 4.306 4.306 0 0 0-1.946 3.362.916.916 0 0 0 .788 1.12Zm1.923-4.23c.252 0 .29.392.29.626a3.87 3.87 0 0 1-1.7 2.93 1.112 1.112 0 0 1-.516.176c-.253 0-.29-.392-.29-.627a3.87 3.87 0 0 1 1.7-2.929 1.116 1.116 0 0 1 .515-.175Zm14.148-6.332a1.585 1.585 0 0 0 .764-.242 4.307 4.307 0 0 0 1.946-3.362.915.915 0 0 0-.788-1.124 1.584 1.584 0 0 0-.764.241 4.307 4.307 0 0 0-1.946 3.363.915.915 0 0 0 .787 1.125Zm1.923-4.23c.252 0 .29.392.29.626a3.87 3.87 0 0 1-1.7 2.93 1.123 1.123 0 0 1-.516.176c-.252 0-.29-.392-.29-.626a3.874 3.874 0 0 1 1.7-2.931 1.12 1.12 0 0 1 .515-.174Zm14.415-28.923a1.558 1.558 0 0 0 .764-.241 4.305 4.305 0 0 0 1.947-3.363.915.915 0 0 0-.788-1.124 1.573 1.573 0 0 0-.764.242 4.306 4.306 0 0 0-1.946 3.362.915.915 0 0 0 .787 1.124Zm1.923-4.23c.253 0 .291.392.291.626a3.873 3.873 0 0 1-1.7 2.931 1.123 1.123 0 0 1-.516.175c-.252 0-.29-.392-.29-.626a3.869 3.869 0 0 1 1.7-2.93 1.127 1.127 0 0 1 .514-.176Zm47.093-1.484a1.558 1.558 0 0 0 .764-.241 4.3 4.3 0 0 0 1.946-3.363.915.915 0 0 0-.787-1.124 1.557 1.557 0 0 0-.764.241 4.3 4.3 0 0 0-1.946 3.363.915.915 0 0 0 .786 1.124Zm1.923-4.23c.252 0 .29.392.29.626a3.873 3.873 0 0 1-1.7 2.931 1.124 1.124 0 0 1-.516.175c-.252 0-.29-.392-.29-.626a3.871 3.871 0 0 1 1.7-2.931 1.119 1.119 0 0 1 .515-.175Zm-17.726 3.5a1.557 1.557 0 0 0 .766-.241 4.309 4.309 0 0 0 1.947-3.363.916.916 0 0 0-.788-1.124 1.558 1.558 0 0 0-.764.241 4.3 4.3 0 0 0-1.946 3.363.915.915 0 0 0 .784 1.126Zm1.923-4.23c.253 0 .29.392.29.626a3.873 3.873 0 0 1-1.7 2.93 1.118 1.118 0 0 1-.516.176c-.252 0-.29-.392-.29-.626a3.871 3.871 0 0 1 1.7-2.931 1.118 1.118 0 0 1 .515-.173Zm-19.066-11.07a1.555 1.555 0 0 0 .764-.241A4.305 4.305 0 0 0 87.3 9.637a.915.915 0 0 0-.788-1.124 1.574 1.574 0 0 0-.764.242 4.306 4.306 0 0 0-1.948 3.362.915.915 0 0 0 .791 1.124Zm1.923-4.23c.252 0 .29.392.29.626a3.873 3.873 0 0 1-1.7 2.931 1.124 1.124 0 0 1-.516.175c-.252 0-.29-.392-.29-.626A3.87 3.87 0 0 1 86 9.187a1.118 1.118 0 0 1 .514-.176Zm1.386 3.318 13.6 12.141a4.452 4.452 0 0 1 1.077-.91 2.567 2.567 0 0 1 1.283-.381 1.72 1.72 0 0 1 1.467.8 1.741 1.741 0 0 0-1.668-1.2 2.568 2.568 0 0 0-1.283.381 4.454 4.454 0 0 0-1.077.91L87.97 12.172c-.026.052-.047.105-.07.157ZM19.617 105.7a1.337 1.337 0 0 0 .64-.209 4.089 4.089 0 0 0 1.822-3.146 1.061 1.061 0 0 0-.242-.764 1.861 1.861 0 0 1 .041.361 4.093 4.093 0 0 1-1.822 3.147 1.334 1.334 0 0 1-.64.208.431.431 0 0 1-.3-.111.529.529 0 0 0 .501.514Zm16.7-26.845a1.337 1.337 0 0 0 .64-.209 4.09 4.09 0 0 0 1.817-3.146 1.059 1.059 0 0 0-.242-.764 1.85 1.85 0 0 1 .041.361 4.093 4.093 0 0 1-1.821 3.147 1.336 1.336 0 0 1-.64.208.432.432 0 0 1-.3-.111.529.529 0 0 0 .5.514Zm69.294-52.794 10.8.5a5.216 5.216 0 0 1 1.971-2.272 2.565 2.565 0 0 1 1.283-.381 1.72 1.72 0 0 1 1.467.8 1.742 1.742 0 0 0-1.668-1.2 2.569 2.569 0 0 0-1.283.382 5.209 5.209 0 0 0-1.971 2.272l-10.558-.487c-.019.125-.022.254-.046.386Zm12.131 3.364a1.336 1.336 0 0 0 .64-.209 4.091 4.091 0 0 0 1.818-3.146 1.062 1.062 0 0 0-.242-.764 1.874 1.874 0 0 1 .041.362 4.094 4.094 0 0 1-1.822 3.146 1.343 1.343 0 0 1-.64.208.432.432 0 0 1-.3-.111.53.53 0 0 0 .5.514Zm-15.8-.728a1.345 1.345 0 0 0 .64-.209 4.091 4.091 0 0 0 1.822-3.146 1.063 1.063 0 0 0-.242-.764 1.873 1.873 0 0 1 .041.361 4.091 4.091 0 0 1-1.822 3.146 1.344 1.344 0 0 1-.64.209.434.434 0 0 1-.3-.111.531.531 0 0 0 .493.517Zm-49.551 39.6a1.344 1.344 0 0 0 .64-.208 4.094 4.094 0 0 0 1.822-3.147 1.059 1.059 0 0 0-.242-.764 1.836 1.836 0 0 1 .041.361 4.093 4.093 0 0 1-1.822 3.146 1.345 1.345 0 0 1-.64.209.43.43 0 0 1-.3-.112.53.53 0 0 0 .493.511ZM55.5 63.25a1.785 1.785 0 0 1 .261.315 2.022 2.022 0 0 0-.21-.419Zm13.221-28.111a1.345 1.345 0 0 0 .641-.208 4.094 4.094 0 0 0 1.821-3.146 1.059 1.059 0 0 0-.242-.764 1.858 1.858 0 0 1 .041.361 4.094 4.094 0 0 1-1.821 3.146 1.346 1.346 0 0 1-.641.208.431.431 0 0 1-.3-.111.529.529 0 0 0 .501.514Zm47.192-6.59a3.984 3.984 0 0 1 .075-.72l-.241-.011a3.1 3.1 0 0 0-.035.328 2.477 2.477 0 0 0 .357 1.366 2.806 2.806 0 0 1-.156-.963Zm-98.12 76.276a5.373 5.373 0 0 1 2.464-4.262 2.557 2.557 0 0 1 1.283-.381 1.8 1.8 0 0 1 .373.041l12.961-20.84a2.437 2.437 0 0 1-.385-1.4 5.374 5.374 0 0 1 2.464-4.262 2.565 2.565 0 0 1 1.283-.381 1.724 1.724 0 0 1 1.56.975l10.779-7.084a5.393 5.393 0 0 1 2.448-4.072 2.565 2.565 0 0 1 1.281-.38l13.22-26.827a1.773 1.773 0 0 1-.252-.3L54.1 62.372a2.561 2.561 0 0 0-1.281.381 5.392 5.392 0 0 0-2.448 4.071L39.595 73.91a1.724 1.724 0 0 0-1.56-.976 2.565 2.565 0 0 0-1.283.382 5.372 5.372 0 0 0-2.464 4.262 2.439 2.439 0 0 0 .385 1.4L21.712 99.82a1.8 1.8 0 0 0-.373-.042 2.57 2.57 0 0 0-1.283.381 5.373 5.373 0 0 0-2.464 4.262 2.477 2.477 0 0 0 .357 1.367 2.812 2.812 0 0 1-.156-.963Zm82.317-77a4.933 4.933 0 0 1 .644-2.289l-.276-.246a4.841 4.841 0 0 0-.569 2.133 2.479 2.479 0 0 0 .357 1.366 2.807 2.807 0 0 1-.156-.968Zm-15.318-14.43a1.345 1.345 0 0 0 .64-.208 4.094 4.094 0 0 0 1.822-3.147 1.058 1.058 0 0 0-.242-.763 1.858 1.858 0 0 1 .041.361 4.093 4.093 0 0 1-1.822 3.146 1.344 1.344 0 0 1-.64.208.432.432 0 0 1-.3-.111.529.529 0 0 0 .501.514ZM66.9 34.264A5.374 5.374 0 0 1 69.362 30a2.563 2.563 0 0 1 1.282-.381 1.791 1.791 0 0 1 .661.126l11.9-16.1a2.619 2.619 0 0 1-.235-1.129 5.374 5.374 0 0 1 2.464-4.263 2.564 2.564 0 0 1 1.283-.381 1.719 1.719 0 0 1 1.467.8 1.741 1.741 0 0 0-1.668-1.2 2.565 2.565 0 0 0-1.283.382 5.371 5.371 0 0 0-2.464 4.262 2.62 2.62 0 0 0 .231 1.13l-11.9 16.1a1.789 1.789 0 0 0-.661-.126 2.564 2.564 0 0 0-1.282.382 5.371 5.371 0 0 0-2.457 4.26 2.445 2.445 0 0 0 .365 1.372 2.73 2.73 0 0 1-.165-.97Z" opacity=".2"/>
    <path fill="#4eb68d" d="M121.142 3.323a5.417 5.417 0 0 1-2.482 4.295 2.579 2.579 0 0 1-1.289.382 1.746 1.746 0 0 1-1.67-1.2l-10.186 10.213a5.453 5.453 0 0 1-2.455 3.964 2.579 2.579 0 0 1-1.289.383 1.737 1.737 0 0 1-1.63-1.118L88.2 24.7a5.489 5.489 0 0 1-2.412 3.595 2.576 2.576 0 0 1-1.289.384 1.76 1.76 0 0 1-.85-.224L72.056 53.122a2.573 2.573 0 0 1 .278 1.222 5.417 5.417 0 0 1-2.482 4.3 2.582 2.582 0 0 1-1.289.383 1.785 1.785 0 0 1-.687-.138L55.865 75.246l-.072-.053a5.423 5.423 0 0 1-2.479 4.257 2.583 2.583 0 0 1-1.289.383 1.9 1.9 0 0 1-1.825-2.172 4.107 4.107 0 0 1 .1-.825l-11.085-9.65a5.076 5.076 0 0 1-1.768 1.858 2.582 2.582 0 0 1-1.289.383 1.725 1.725 0 0 1-1.292-.571L23.168 83.22a5.447 5.447 0 0 1-2.459 4.017 2.581 2.581 0 0 1-1.289.383 1.9 1.9 0 0 1-1.827-2.171 5.416 5.416 0 0 1 2.482-4.3 2.58 2.58 0 0 1 1.289-.383 1.723 1.723 0 0 1 1.479.812l11.5-14.126c0-.068-.016-.129-.016-.2a5.417 5.417 0 0 1 2.482-4.295 2.582 2.582 0 0 1 1.289-.383 1.9 1.9 0 0 1 1.827 2.172 4.321 4.321 0 0 1-.182 1.192l11.012 9.59a5.2 5.2 0 0 1 1.922-2.164 2.575 2.575 0 0 1 1.289-.383 1.721 1.721 0 0 1 1.42.736l11.57-15.761a2.651 2.651 0 0 1-.223-1.108 5.417 5.417 0 0 1 2.482-4.295 2.581 2.581 0 0 1 1.289-.383 1.787 1.787 0 0 1 .532.088l11.741-24.975a2.88 2.88 0 0 1-.107-.776 5.417 5.417 0 0 1 2.482-4.3 2.575 2.575 0 0 1 1.289-.384 1.78 1.78 0 0 1 1.748 1.5l11.776-4.4a5.444 5.444 0 0 1 2.461-4.038 2.582 2.582 0 0 1 1.289-.383 1.725 1.725 0 0 1 1.543.938l10.375-10.4a5.479 5.479 0 0 1 2.393-3.513 2.579 2.579 0 0 1 1.289-.383 1.9 1.9 0 0 1 1.827 2.179Zm-99.22 79.619a.744.744 0 0 0-.558-.9 1.365 1.365 0 0 0-.655.213 4.151 4.151 0 0 0-1.847 3.194.743.743 0 0 0 .558.9 1.369 1.369 0 0 0 .655-.212 4.152 4.152 0 0 0 1.847-3.195ZM38.66 64.749a.743.743 0 0 0-.558-.9 1.369 1.369 0 0 0-.654.212 4.152 4.152 0 0 0-1.848 3.194.744.744 0 0 0 .558.9 1.363 1.363 0 0 0 .654-.213 4.151 4.151 0 0 0 1.848-3.193Zm15.867 10.406a.744.744 0 0 0-.558-.9 1.363 1.363 0 0 0-.654.213 4.15 4.15 0 0 0-1.848 3.194.744.744 0 0 0 .558.9 1.362 1.362 0 0 0 .655-.213 4.149 4.149 0 0 0 1.847-3.194Zm16.538-20.811a.744.744 0 0 0-.558-.9 1.363 1.363 0 0 0-.655.213A4.15 4.15 0 0 0 68 56.85a.743.743 0 0 0 .558.9 1.363 1.363 0 0 0 .655-.213 4.149 4.149 0 0 0 1.852-3.193ZM87 24a.744.744 0 0 0-.558-.9 1.364 1.364 0 0 0-.655.213 4.15 4.15 0 0 0-1.847 3.194.744.744 0 0 0 .558.9 1.363 1.363 0 0 0 .655-.213A4.15 4.15 0 0 0 87 24Zm17.274-7.317a.743.743 0 0 0-.558-.9 1.363 1.363 0 0 0-.655.213 4.15 4.15 0 0 0-1.847 3.193.744.744 0 0 0 .558.9 1.364 1.364 0 0 0 .655-.213 4.15 4.15 0 0 0 1.846-3.194Zm15.6-13.359a.744.744 0 0 0-.558-.9 1.363 1.363 0 0 0-.655.213 4.151 4.151 0 0 0-1.847 3.194.744.744 0 0 0 .558.9 1.371 1.371 0 0 0 .655-.213 4.152 4.152 0 0 0 1.846-3.195ZM19.42 87.869a2.824 2.824 0 0 0 1.413-.416 5.678 5.678 0 0 0 2.576-4.136l11.479-14.1a2.3 2.3 0 0 0 2.683.038 5.183 5.183 0 0 0 1.7-1.693l10.754 9.368a4.021 4.021 0 0 0-.075.732 2.137 2.137 0 0 0 2.076 2.421 2.83 2.83 0 0 0 1.413-.416 5.669 5.669 0 0 0 2.594-4.227l.033-.046 11.9-16.213a2.516 2.516 0 0 0 2.01-.327 5.689 5.689 0 0 0 2.606-4.511 2.9 2.9 0 0 0-.251-1.225l11.436-24.332a2.412 2.412 0 0 0 2.144-.275 5.688 5.688 0 0 0 2.505-3.625l11.6-4.331a1.982 1.982 0 0 0 1.756 1.055 2.826 2.826 0 0 0 1.414-.416 5.71 5.71 0 0 0 2.569-4.068l9.872-9.9a2.2 2.2 0 0 0 3.159.6 5.689 5.689 0 0 0 2.606-4.511A2.137 2.137 0 0 0 119.315.9a2.827 2.827 0 0 0-1.413.416 5.714 5.714 0 0 0-2.5 3.606l-10.1 10.13a2.228 2.228 0 0 0-3-.377 5.679 5.679 0 0 0-2.571 4.076L88.354 23a2 2 0 0 0-1.913-1.422 2.826 2.826 0 0 0-1.413.422 5.69 5.69 0 0 0-2.606 4.511 3.131 3.131 0 0 0 .092.753L70.9 51.966a2.445 2.445 0 0 0-1.809.373 5.685 5.685 0 0 0-2.607 4.511 2.989 2.989 0 0 0 .189 1.074l-11.3 15.393a2.267 2.267 0 0 0-2.82-.167 5.338 5.338 0 0 0-1.87 1.988l-10.655-9.283a4.446 4.446 0 0 0 .149-1.106 2.138 2.138 0 0 0-2.077-2.421 2.831 2.831 0 0 0-1.414.416 5.691 5.691 0 0 0-2.606 4.511 1.039 1.039 0 0 0 .008.124l-11.238 13.8a2.256 2.256 0 0 0-2.9-.241 5.687 5.687 0 0 0-2.606 4.511 2.138 2.138 0 0 0 2.076 2.42Zm15.436-19.4-11.93 14.65-.006.078a5.216 5.216 0 0 1-2.336 3.819 2.339 2.339 0 0 1-1.164.349 1.649 1.649 0 0 1-1.579-1.922A5.139 5.139 0 0 1 20.2 81.37a1.716 1.716 0 0 1 2.433.346l.184.292L34.6 67.538l-.016-.182a.887.887 0 0 1-.008-.1 5.149 5.149 0 0 1 2.358-4.079 2.345 2.345 0 0 1 1.165-.349 1.649 1.649 0 0 1 1.579 1.922 4.049 4.049 0 0 1-.173 1.122l-.045.154.12.1 11.253 9.8.144-.286a4.969 4.969 0 0 1 1.823-2.058 1.726 1.726 0 0 1 2.382.281l.2.281.2-.277 11.663-15.879-.06-.133a2.414 2.414 0 0 1-.2-1.005 5.143 5.143 0 0 1 2.358-4.079 2.34 2.34 0 0 1 1.165-.35 1.55 1.55 0 0 1 .459.078l.206.063 11.868-25.256-.024-.09a2.622 2.622 0 0 1-.1-.71 5.144 5.144 0 0 1 2.358-4.078 2.335 2.335 0 0 1 1.165-.35 1.532 1.532 0 0 1 1.505 1.306l.063.277 12.192-4.552.011-.159a5.205 5.205 0 0 1 2.337-3.84 1.687 1.687 0 0 1 2.489.458l.159.295L115.862 5.17l.014-.074a5.271 5.271 0 0 1 2.274-3.345 2.332 2.332 0 0 1 1.165-.35 1.65 1.65 0 0 1 1.579 1.922 5.143 5.143 0 0 1-2.358 4.077 1.673 1.673 0 0 1-2.6-.686l-.136-.366L105.276 16.9l-.008.09a5.241 5.241 0 0 1-2.332 3.771 1.679 1.679 0 0 1-2.566-.615l-.092-.222-12.3 4.591-.025.14a5.242 5.242 0 0 1-2.291 3.422 1.865 1.865 0 0 1-1.9.157l-.232-.126-11.752 25.021.058.11a2.343 2.343 0 0 1 .249 1.1 5.146 5.146 0 0 1-2.358 4.079 1.962 1.962 0 0 1-1.757.231l-.18-.075-.116.157L55.812 74.9l-.262-.192v.484a5.169 5.169 0 0 1-2.355 4.044 2.339 2.339 0 0 1-1.164.349 1.649 1.649 0 0 1-1.579-1.922 3.749 3.749 0 0 1 .093-.773l.029-.144L39.149 66.8l-.149.261a4.8 4.8 0 0 1-1.676 1.767 1.756 1.756 0 0 1-2.272-.139ZM19.42 86.6a1.615 1.615 0 0 0 .779-.245 4.37 4.37 0 0 0 1.971-3.411.936.936 0 0 0-.807-1.149 1.61 1.61 0 0 0-.779.246 4.363 4.363 0 0 0-1.971 3.41.936.936 0 0 0 .807 1.149Zm1.943-4.306c.256 0 .31.353.31.651a3.935 3.935 0 0 1-1.723 2.975 1.141 1.141 0 0 1-.53.179c-.256 0-.31-.353-.31-.65a3.929 3.929 0 0 1 1.723-2.977 1.144 1.144 0 0 1 .53-.181Zm30.663-3.484a1.606 1.606 0 0 0 .78-.247 4.362 4.362 0 0 0 1.97-3.409.936.936 0 0 0-.807-1.148 1.6 1.6 0 0 0-.78.247 4.363 4.363 0 0 0-1.97 3.409.936.936 0 0 0 .807 1.148Zm1.943-4.31c.256 0 .31.353.31.65a3.931 3.931 0 0 1-1.722 2.978 1.135 1.135 0 0 1-.53.18c-.256 0-.31-.353-.31-.65a3.93 3.93 0 0 1 1.723-2.977 1.125 1.125 0 0 1 .529-.181Zm-17.812-6.1a1.611 1.611 0 0 0 .779-.247 4.361 4.361 0 0 0 1.972-3.409.936.936 0 0 0-.808-1.144 1.6 1.6 0 0 0-.779.245 4.431 4.431 0 0 0-1.972 3.41.937.937 0 0 0 .809 1.15Zm1.943-4.3c.256 0 .31.353.31.651a3.93 3.93 0 0 1-1.723 2.978 1.15 1.15 0 0 1-.53.18c-.256 0-.31-.354-.31-.651a3.93 3.93 0 0 1 1.723-2.978 1.141 1.141 0 0 1 .53-.18ZM68.563 58a1.605 1.605 0 0 0 .779-.245 4.431 4.431 0 0 0 1.971-3.41.936.936 0 0 0-.807-1.15 1.615 1.615 0 0 0-.779.247 4.363 4.363 0 0 0-1.971 3.41.936.936 0 0 0 .807 1.148Zm1.943-4.306c.256 0 .31.354.31.651a3.93 3.93 0 0 1-1.723 2.978 1.141 1.141 0 0 1-.53.179c-.256 0-.31-.353-.31-.65a3.929 3.929 0 0 1 1.723-2.978 1.149 1.149 0 0 1 .531-.181ZM84.5 27.656a1.62 1.62 0 0 0 .779-.246A4.365 4.365 0 0 0 87.248 24a.936.936 0 0 0-.807-1.149 1.6 1.6 0 0 0-.779.245 4.43 4.43 0 0 0-1.972 3.41.937.937 0 0 0 .81 1.15Zm1.944-4.306c.256 0 .31.354.31.651a3.928 3.928 0 0 1-1.723 2.977 1.149 1.149 0 0 1-.53.18c-.256 0-.31-.354-.31-.651a3.928 3.928 0 0 1 1.723-2.977 1.132 1.132 0 0 1 .527-.18Zm15.33-3.012a1.591 1.591 0 0 0 .779-.247 4.362 4.362 0 0 0 1.972-3.409.937.937 0 0 0-.807-1.149 1.6 1.6 0 0 0-.78.248 4.361 4.361 0 0 0-1.97 3.409.935.935 0 0 0 .803 1.148Zm1.944-4.306c.256 0 .31.353.31.65a3.928 3.928 0 0 1-1.728 2.978 1.129 1.129 0 0 1-.531.18c-.255 0-.309-.353-.309-.65a3.929 3.929 0 0 1 1.723-2.978 1.126 1.126 0 0 1 .532-.18Zm13.656-9.053a1.6 1.6 0 0 0 .78-.248 4.362 4.362 0 0 0 1.971-3.408.937.937 0 0 0-.807-1.149 1.6 1.6 0 0 0-.78.248 4.362 4.362 0 0 0-1.971 3.408.937.937 0 0 0 .804 1.149Zm1.944-4.306c.256 0 .31.353.31.65A3.928 3.928 0 0 1 117.9 6.3a1.125 1.125 0 0 1-.531.18c-.255 0-.309-.353-.309-.65a3.928 3.928 0 0 1 1.723-2.977 1.126 1.126 0 0 1 .532-.18Zm-67.021 76.2a1.369 1.369 0 0 0 .654-.212 4.152 4.152 0 0 0 1.849-3.193.923.923 0 0 0-.35-.834 1.622 1.622 0 0 1 .082.521 4.149 4.149 0 0 1-1.847 3.193 1.362 1.362 0 0 1-.655.213.437.437 0 0 1-.208-.066.49.49 0 0 0 .472.379ZM40.014 66.254l11.011 9.59a5.206 5.206 0 0 1 1.922-2.164 2.582 2.582 0 0 1 1.289-.383 1.72 1.72 0 0 1 1.42.737l11.57-15.763A2.655 2.655 0 0 1 67 57.164a5.416 5.416 0 0 1 2.482-4.295 2.581 2.581 0 0 1 1.289-.383 1.809 1.809 0 0 1 .532.088L83.045 27.6a2.888 2.888 0 0 1-.107-.776 5.416 5.416 0 0 1 2.482-4.3 2.583 2.583 0 0 1 1.289-.383 1.7 1.7 0 0 1 1.222.537 1.713 1.713 0 0 0-1.49-.851 2.575 2.575 0 0 0-1.289.384 5.417 5.417 0 0 0-2.482 4.3 2.88 2.88 0 0 0 .107.776L71.039 52.26a1.787 1.787 0 0 0-.532-.088 2.581 2.581 0 0 0-1.289.383 5.417 5.417 0 0 0-2.482 4.295 2.651 2.651 0 0 0 .223 1.108l-11.57 15.761a1.721 1.721 0 0 0-1.42-.736 2.575 2.575 0 0 0-1.289.383 5.2 5.2 0 0 0-1.922 2.164l-10.729-9.343c-.006.023-.008.045-.015.067Zm28.816-8.191a1.363 1.363 0 0 0 .654-.212 4.152 4.152 0 0 0 1.847-3.194.921.921 0 0 0-.35-.833 1.614 1.614 0 0 1 .082.52 4.149 4.149 0 0 1-1.847 3.193 1.363 1.363 0 0 1-.655.213.43.43 0 0 1-.208-.066.49.49 0 0 0 .478.379Zm19.627-34.422 11.775-4.4a5.448 5.448 0 0 1 2.461-4.037 2.579 2.579 0 0 1 1.29-.384 1.715 1.715 0 0 1 1.148.449 1.715 1.715 0 0 0-1.416-.763 2.582 2.582 0 0 0-1.289.383 5.444 5.444 0 0 0-2.461 4.038l-11.651 4.354a2.146 2.146 0 0 1 .143.36Zm13.582-3.241a1.356 1.356 0 0 0 .654-.213A4.149 4.149 0 0 0 104.541 17a.922.922 0 0 0-.35-.833 1.626 1.626 0 0 1 .082.52 4.15 4.15 0 0 1-1.847 3.194 1.364 1.364 0 0 1-.655.213.43.43 0 0 1-.208-.067.49.49 0 0 0 .476.373Zm15.6-13.359a1.366 1.366 0 0 0 .655-.213 4.152 4.152 0 0 0 1.847-3.194.921.921 0 0 0-.35-.833 1.62 1.62 0 0 1 .082.52 4.152 4.152 0 0 1-1.847 3.194 1.371 1.371 0 0 1-.655.213.43.43 0 0 1-.208-.067.491.491 0 0 0 .476.382Zm-12.113 8.719L115.9 5.361a5.484 5.484 0 0 1 2.394-3.513 2.579 2.579 0 0 1 1.289-.383 1.735 1.735 0 0 1 1.184.464 1.723 1.723 0 0 0-1.452-.777 2.579 2.579 0 0 0-1.289.383 5.479 5.479 0 0 0-2.393 3.513l-10.351 10.377a1.815 1.815 0 0 1 .244.337ZM84.765 27.72a1.363 1.363 0 0 0 .654-.213 4.149 4.149 0 0 0 1.847-3.194.922.922 0 0 0-.35-.833A1.621 1.621 0 0 1 87 24a4.15 4.15 0 0 1-1.847 3.194 1.363 1.363 0 0 1-.655.213.436.436 0 0 1-.208-.066.49.49 0 0 0 .475.379Zm-34.3 50.255a4.106 4.106 0 0 1 .1-.825l-.28-.243a3.936 3.936 0 0 0-.087.755 2.234 2.234 0 0 0 .643 1.707 2.464 2.464 0 0 1-.375-1.394Zm49.942-57.419-.066.025a1.76 1.76 0 0 0 .267.312 1.9 1.9 0 0 1-.2-.338Zm15.562-13.442-.063.063a1.75 1.75 0 0 0 .285.344 1.9 1.9 0 0 1-.222-.407ZM36.426 68.469a1.363 1.363 0 0 0 .655-.213 4.15 4.15 0 0 0 1.847-3.194.921.921 0 0 0-.35-.833 1.624 1.624 0 0 1 .082.52 4.151 4.151 0 0 1-1.847 3.194 1.363 1.363 0 0 1-.654.213.431.431 0 0 1-.208-.067.491.491 0 0 0 .475.38ZM17.86 85.762a5.417 5.417 0 0 1 2.482-4.3 2.582 2.582 0 0 1 1.289-.383 1.73 1.73 0 0 1 1.161.44 1.72 1.72 0 0 0-1.429-.753 2.58 2.58 0 0 0-1.289.383 5.416 5.416 0 0 0-2.482 4.3 2.234 2.234 0 0 0 .643 1.707 2.461 2.461 0 0 1-.375-1.394Zm1.827.9a1.363 1.363 0 0 0 .654-.213 4.152 4.152 0 0 0 1.848-3.194.921.921 0 0 0-.35-.833 1.615 1.615 0 0 1 .082.52 4.152 4.152 0 0 1-1.847 3.194 1.369 1.369 0 0 1-.655.212.429.429 0 0 1-.208-.066.491.491 0 0 0 .477.38Zm3.158-5.084a1.729 1.729 0 0 1 .264.317l11.5-14.126c0-.068-.016-.129-.016-.2a5.417 5.417 0 0 1 2.482-4.3 2.58 2.58 0 0 1 1.289-.383 1.733 1.733 0 0 1 1.184.464 1.724 1.724 0 0 0-1.452-.777 2.582 2.582 0 0 0-1.289.383 5.417 5.417 0 0 0-2.482 4.295c0 .072.012.133.016.2Z"/>
  </g>
</svg>
