<svg xmlns="http://www.w3.org/2000/svg" viewBox="0 0 253 115">
  <g fill-rule="evenodd" opacity=".6">
    <path fill="#0fd297" d="M241.015 74.935a3.971 3.971 0 0 1-1.983-.529l-6.684-3.858a1.236 1.236 0 0 1 0-2.143l6.684-3.858a3.975 3.975 0 0 1 3.965 0l6.684 3.858a1.236 1.236 0 0 1 0 2.143L243 74.406a3.964 3.964 0 0 1-1.985.529Zm-1.453-1.446a2.917 2.917 0 0 0 2.906 0l6.684-3.858a.178.178 0 0 0 0-.308l-6.685-3.858a2.913 2.913 0 0 0-2.905 0l-6.684 3.858a.178.178 0 0 0 0 .308Zm-104.576 40.984a5.906 5.906 0 0 1-2.956-.792l-11.5-6.639a1.217 1.217 0 0 1 0-2.109l11.5-6.639a5.915 5.915 0 0 1 5.912 0l11.5 6.639a1.217 1.217 0 0 1 0 2.109l-11.5 6.639a5.912 5.912 0 0 1-2.956.792m0-17.5a6.44 6.44 0 0 0-3.221.861l-11.5 6.639a1.747 1.747 0 0 0 0 3.026l11.5 6.639a6.46 6.46 0 0 0 6.441 0l11.5-6.639a1.747 1.747 0 0 0 0-3.026l-11.5-6.639a6.443 6.443 0 0 0-3.221-.861m0 1.06a5.383 5.383 0 0 0-2.691.718l-11.5 6.639a.688.688 0 0 0 0 1.192l11.5 6.638a5.4 5.4 0 0 0 5.381 0l11.5-6.638a.688.688 0 0 0 0-1.192l-11.5-6.639a5.384 5.384 0 0 0-2.692-.718m0 15.905a5.38 5.38 0 0 1-2.69-.718l-11.5-6.638a.688.688 0 0 1 0-1.192l11.5-6.639a5.4 5.4 0 0 1 5.383 0l11.5 6.639a.688.688 0 0 1 0 1.192l-11.5 6.638a5.381 5.381 0 0 1-2.691.718m0-16.437a5.911 5.911 0 0 0-2.956.792l-11.5 6.639a1.217 1.217 0 0 0 0 2.109l11.5 6.639a5.912 5.912 0 0 0 5.912 0l11.5-6.639a1.217 1.217 0 0 0 0-2.109l-11.5-6.639a5.914 5.914 0 0 0-2.956-.792M26.871 80.051a10.947 10.947 0 0 1-5.471-1.462L1.391 67.043a2.782 2.782 0 0 1 0-4.819L21.4 50.678a10.977 10.977 0 0 1 10.946 0l20.005 11.547a2.781 2.781 0 0 1 0 4.818L32.344 78.589a10.945 10.945 0 0 1-5.473 1.462Zm0-29.507a9.615 9.615 0 0 0-4.809 1.284L2.055 63.374a1.454 1.454 0 0 0 0 2.519l20.007 11.546a9.647 9.647 0 0 0 9.618 0l20.007-11.546a1.454 1.454 0 0 0 0-2.519L31.68 51.828a9.615 9.615 0 0 0-4.809-1.284Zm36.4-19.058a8.367 8.367 0 0 1-4.185-1.121L42.8 20.967a1.724 1.724 0 0 1 0-2.986l16.284-9.4a8.371 8.371 0 0 1 8.369 0l16.286 9.4a1.724 1.724 0 0 1 0 2.986l-16.285 9.4a8.368 8.368 0 0 1-4.185 1.121m0-24.551a8.9 8.9 0 0 0-4.45 1.188l-16.285 9.4a2.253 2.253 0 0 0 0 3.9l16.285 9.4a8.928 8.928 0 0 0 8.9 0l16.284-9.4a2.253 2.253 0 0 0 0-3.9l-16.285-9.4a8.909 8.909 0 0 0-4.45-1.188m0 1.06a7.835 7.835 0 0 0-3.919 1.046l-16.285 9.4a1.2 1.2 0 0 0 0 2.07l16.285 9.4a7.864 7.864 0 0 0 7.839 0l16.285-9.4a1.2 1.2 0 0 0 0-2.069L67.19 9.041A7.842 7.842 0 0 0 63.27 8m0 22.959a7.847 7.847 0 0 1-3.92-1.046l-16.285-9.4a1.2 1.2 0 0 1 0-2.07l16.285-9.4a7.864 7.864 0 0 1 7.839 0l16.286 9.4a1.2 1.2 0 0 1 0 2.069l-16.285 9.4a7.836 7.836 0 0 1-3.919 1.046m0-23.492a8.368 8.368 0 0 0-4.185 1.121L42.8 17.981a1.724 1.724 0 0 0 0 2.986l16.285 9.4a8.371 8.371 0 0 0 8.369 0l16.285-9.4a1.724 1.724 0 0 0 0-2.986l-16.286-9.4a8.367 8.367 0 0 0-4.185-1.121m159.167 47.776a12.312 12.312 0 0 1-6.157-1.644l-22.929-13.233a2.956 2.956 0 0 1 0-5.122L216.277 22a12.35 12.35 0 0 1 12.314 0l22.929 13.238a2.956 2.956 0 0 1 0 5.122l-22.928 13.232a12.312 12.312 0 0 1-6.157 1.644Zm-5.627-2.561a11.29 11.29 0 0 0 11.254 0l22.929-13.232a1.9 1.9 0 0 0 0-3.288l-22.929-13.233a11.3 11.3 0 0 0-11.255 0l-22.928 13.232a1.9 1.9 0 0 0 0 3.287Zm-90.293-18.222 14.653 8.457a3.388 3.388 0 0 0 3.062 0 .933.933 0 0 0 0-1.767l-14.653-8.457a3.386 3.386 0 0 0-3.061 0 .932.932 0 0 0-.001 1.767Zm-4.885 1.569a3.129 3.129 0 0 0-1.53.366.932.932 0 0 0 0 1.767l22.54 13.008a3.385 3.385 0 0 0 3.061 0 .933.933 0 0 0 0-1.767l-22.54-13.008a3.125 3.125 0 0 0-1.531-.366m-7.946 5.836 4.52 2.608a3.386 3.386 0 0 0 3.062 0 .932.932 0 0 0 0-1.767l-4.52-2.608a3.384 3.384 0 0 0-3.062 0 .933.933 0 0 0 0 1.767Zm-6.414 3.7 12.757 7.363a3.388 3.388 0 0 0 3.062 0 .933.933 0 0 0 0-1.767l-12.758-7.362a3.384 3.384 0 0 0-3.062 0 .932.932 0 0 0 .001 1.768Zm32.33 9.492a.932.932 0 0 0 0-1.767l-12.752-7.363a3.388 3.388 0 0 0-3.062 0 .932.932 0 0 0 0 1.767l12.757 7.362a3.384 3.384 0 0 0 3.057.001Zm4.082 1.107a3.13 3.13 0 0 0-1.531.366.933.933 0 0 0 0 1.767l3.625 2.091.75.432 3.624 2.093a3.39 3.39 0 0 0 3.062 0 .933.933 0 0 0 0-1.767l-3.625-2.092-.749-.432-3.625-2.092a3.128 3.128 0 0 0-1.531-.366M217.81.927a3 3 0 0 1 2.718 0l1.339.779a.828.828 0 0 1 0 1.569 3.007 3.007 0 0 1-2.719 0l-1.333-.775a.828.828 0 0 1 0-1.573Zm-12.71-.6a3 3 0 0 1 2.719 0l8.223 4.746a.828.828 0 0 1 0 1.568 3.007 3.007 0 0 1-2.719 0L205.1 1.896a.828.828 0 0 1 .005-1.574Zm-25.339 18.986a3.005 3.005 0 0 1 2.718 0l4.442 2.564a.828.828 0 0 1 0 1.569 3.007 3.007 0 0 1-2.719 0l-4.441-2.564a.828.828 0 0 1 0-1.569Zm7.739-3.366a2.784 2.784 0 0 0-1.36.324.828.828 0 0 0 0 1.569l3.888 2.243a3.006 3.006 0 0 0 2.717 0 .828.828 0 0 0 0-1.569l-3.887-2.243a2.777 2.777 0 0 0-1.359-.324m-8.024-11.372a2.784 2.784 0 0 0-1.36.325.829.829 0 0 0 0 1.57l17.738 10.253a3 3 0 0 0 2.718 0 .828.828 0 0 0 0-1.569L180.834 4.9a2.778 2.778 0 0 0-1.359-.325M195.2 8.052a3 3 0 0 1 2.718 0l6.481 3.74a.828.828 0 0 1 0 1.569 3.005 3.005 0 0 1-2.718 0L195.2 9.62a.828.828 0 0 1 0-1.568Zm8.419-1.865a3.007 3.007 0 0 1 2.719 0l3.886 2.243a.828.828 0 0 1 0 1.569 3.007 3.007 0 0 1-2.718 0l-3.887-2.243a.828.828 0 0 1-.003-1.57Zm-20.755 14.907a3 3 0 0 1 2.718 0l1.339.779a.828.828 0 0 1 0 1.569 3.007 3.007 0 0 1-2.719 0l-1.338-.779a.828.828 0 0 1 0-1.569ZM162 14.656a2.777 2.777 0 0 0-1.359.325.828.828 0 0 0 0 1.569l17.736 10.25a3 3 0 0 0 2.718 0 .827.827 0 0 0 0-1.568l-17.736-10.251a2.784 2.784 0 0 0-1.36-.325m-2.848 6.189a3.005 3.005 0 0 1 2.718 0l13.4 7.751a.827.827 0 0 1 0 1.568 3 3 0 0 1-2.718 0l-13.4-7.75a.828.828 0 0 1 0-1.569ZM71.993 66.617a2.994 2.994 0 0 1 2.709 0l17.673 10.216a.825.825 0 0 1 0 1.563 2.992 2.992 0 0 1-2.709 0L71.993 68.18a.825.825 0 0 1 0-1.563ZM46.739 85.54a3 3 0 0 1 2.709 0l13.906 8.043a.825.825 0 0 1 0 1.563 3 3 0 0 1-2.709 0L46.739 87.1a.825.825 0 0 1 0-1.56Zm17.192 2.133a2.77 2.77 0 0 0-1.355.327.825.825 0 0 0 0 1.563l3.873 2.237a2.994 2.994 0 0 0 2.709 0 .825.825 0 0 0 0-1.563L65.284 88a2.767 2.767 0 0 0-1.354-.324m.129-5.52a3 3 0 0 1 2.709 0l8.194 4.729a.825.825 0 0 1 0 1.563 3 3 0 0 1-2.709 0l-8.193-4.731a.825.825 0 0 1 0-1.563Zm7.54-2.348a3 3 0 0 1 2.709 0l6.457 3.727a.825.825 0 0 1 0 1.563 3 3 0 0 1-2.709 0L71.6 81.369a.825.825 0 0 1 0-1.563Zm.263-7.669a2.767 2.767 0 0 0-1.354.324.824.824 0 0 0 0 1.563l13.352 7.723a2.993 2.993 0 0 0 2.709 0 .825.825 0 0 0 0-1.563l-13.351-7.725a2.768 2.768 0 0 0-1.354-.324M49.831 87.314c.748-.432 11.441 5.056 12.189 5.488l1.334.776a.825.825 0 0 1 0 1.563 3 3 0 0 1-2.709 0l-1.334-.776c-.748-.432-10.228-6.619-9.48-7.051ZM46.647 92.2a2.994 2.994 0 0 1 2.709 0l8.194 4.729a.825.825 0 0 1 0 1.563 2.994 2.994 0 0 1-2.709 0l-8.193-4.729a.825.825 0 0 1-.001-1.563Zm-1.484 5.843a3 3 0 0 1 2.709 0l3.873 2.235a.825.825 0 0 1 0 1.563 2.993 2.993 0 0 1-2.709 0l-3.873-2.235a.825.825 0 0 1 0-1.563Zm177.126-68 11.893 6.864a2.749 2.749 0 0 0 2.485 0 .757.757 0 0 0 0-1.434l-11.893-6.863a2.749 2.749 0 0 0-2.485 0 .757.757 0 0 0 0 1.434Zm-3.965 1.273a2.537 2.537 0 0 0-1.242.3.757.757 0 0 0 0 1.434l10.154 5.887a2.748 2.748 0 0 0 2.485 0 .757.757 0 0 0 0-1.434l-10.154-5.887a2.538 2.538 0 0 0-1.243-.3m-6.449 4.737 3.668 2.117a2.751 2.751 0 0 0 2.486 0 .757.757 0 0 0 0-1.434l-3.669-2.116a2.745 2.745 0 0 0-2.485 0 .757.757 0 0 0 0 1.434Zm-5.207 3 10.355 5.976a2.749 2.749 0 0 0 2.485 0 .757.757 0 0 0 0-1.434l-10.355-5.976a2.749 2.749 0 0 0-2.485 0 .757.757 0 0 0 0 1.44Zm22.614 5.592a.757.757 0 0 0 0-1.434l-6.723-3.865a2.744 2.744 0 0 0-2.485 0 .757.757 0 0 0 0 1.434l6.723 3.865a2.749 2.749 0 0 0 2.485.006ZM22.867 60.977 34.76 67.84a2.746 2.746 0 0 0 2.485 0 .757.757 0 0 0 0-1.434l-11.893-6.864a2.748 2.748 0 0 0-2.485 0 .757.757 0 0 0 0 1.435ZM18.9 62.25a2.539 2.539 0 0 0-1.243.3.756.756 0 0 0 0 1.433l10.154 5.887a2.745 2.745 0 0 0 2.485 0 .757.757 0 0 0 0-1.435l-10.151-5.887a2.54 2.54 0 0 0-1.242-.3" opacity=".1"/>
    <path fill="#439b78" d="M172.257 48.427c-.195-.5-.427-1-.679-1.5a16.452 16.452 0 0 1-1.717 5.183 12.781 12.781 0 0 1-.04 3.384l-1.993.712-5.466 5.365-7.288 3.753-8.4 2.933L136.855 70h-8.4l-9.9-1.823-11.407-2.854-9.11-6.343-3.554-3.156a12.812 12.812 0 0 1-.178-2.08 35.306 35.306 0 0 1-2.062-5.917q-.167.386-.312.774l-.939-1.625v7.114l.017-.015c.19 5.936 4.19 11.838 12.032 16.368 16.064 9.284 42.11 9.284 58.174 0 8.068-4.662 12.075-10.779 12.037-16.889l.006.007v-6.586Z"/>
    <path fill="#439b78" d="M105.63 37.436c14.791-8.533 38.773-8.533 53.565 0 6.723 3.879 10.381 8.852 10.991 13.925a16.393 16.393 0 0 0 1.719-5.179 18.049 18.049 0 0 0-1.456-2.4l1.191-.1-5.868-10.248-17.182-8.249-15.49-1.9-13.243 1.664-8.406 1.585-6.82 3.17-7.058 5.151-3.489 6.894-.44 3.125a17.076 17.076 0 0 0-1.159 2.212A35.239 35.239 0 0 0 94.55 53c-.05-5.633 3.636-11.269 11.08-15.564Z"/>
    <path fill="#122928" d="M132.088 27.011c-9.68 0-19.363 2.132-26.749 6.394-14.772 8.526-14.772 22.349 0 30.875 7.388 4.264 17.068 6.4 26.75 6.4s19.363-2.132 26.748-6.394c14.773-8.526 14.773-22.349 0-30.876-7.388-4.264-17.068-6.395-26.75-6.395" opacity=".64"/>
    <path fill="#4eb68d" d="M132.2 29.141c-9.685 0-19.369 2.131-26.758 6.393C98.916 39.3 95.278 44.089 94.511 49c.767 4.914 4.406 9.707 10.927 13.469 7.389 4.262 17.074 6.394 26.758 6.394s19.369-2.132 26.758-6.394c6.521-3.761 10.16-8.554 10.926-13.468-.766-4.914-4.406-9.707-10.927-13.468-7.389-4.263-17.074-6.394-26.758-6.394" opacity=".03"/>
    <path fill="#4eb68d" d="M161.172 30.2c-16.063-9.265-42.1-9.265-58.168 0s-16.062 24.285 0 33.549 42.106 9.265 58.168 0 16.063-24.28 0-33.549Zm-2.332 32.2c-14.774 8.521-38.728 8.521-53.5 0s-14.775-22.337 0-30.858 38.728-8.521 53.5 0 14.774 22.345 0 30.866Zm52.06 38.627a2.524 2.524 0 0 1-1.267-.34L158.291 71.08a2.535 2.535 0 1 1 2.537-4.39l51.343 29.61a2.534 2.534 0 0 1-1.271 4.727Z"/>
  </g>
</svg>
